<?xml version="1.0" standalone="no"?>
 <!DOCTYPE svg PUBLIC "-//W3C//DTD SVG 1.1//EN" 
 "http://www.w3.org/Graphics/SVG/1.1/DTD/svg11.dtd"> 
<svg xmlns="http://www.w3.org/2000/svg" version="1.1" 
    width="29.7002cm" height="21.0007cm" viewBox="0 0 116930 82680 ">
<title>SVG Picture created as ws2812-2020-breakout-B_SilkS.svg date 2019/11/14 19:58:50 </title>
  <desc>Picture generated by PCBNEW </desc>
<g style="fill:#000000; fill-opacity:1;stroke:#000000; stroke-opacity:1;
stroke-linecap:round; stroke-linejoin:round; "
 transform="translate(0 0) scale(1 1)">
</g>
<g style="fill:#000000; fill-opacity:0.0; 
stroke:#000000; stroke-width:-0.000393701; stroke-opacity:1; 
stroke-linecap:round; stroke-linejoin:round;">
</g>
<g style="fill:#000000; fill-opacity:0.0; 
stroke:#000000; stroke-width:60; stroke-opacity:1; 
stroke-linecap:round; stroke-linejoin:round;">
<path d="M17392 12076
L17306 12436
L17238 12179
L17169 12436
L17083 12076
" />
<path d="M16963 12419
L16912 12436
L16826 12436
L16792 12419
L16775 12402
L16758 12368
L16758 12334
L16775 12299
L16792 12282
L16826 12265
L16895 12248
L16929 12231
L16946 12214
L16963 12179
L16963 12145
L16946 12111
L16929 12094
L16895 12076
L16809 12076
L16758 12094
" />
<path d="M16621 12111
L16603 12094
L16569 12076
L16483 12076
L16449 12094
L16432 12111
L16415 12145
L16415 12179
L16432 12231
L16638 12436
L16415 12436
" />
<path d="M16209 12231
L16243 12214
L16261 12196
L16278 12162
L16278 12145
L16261 12111
L16243 12094
L16209 12076
L16141 12076
L16106 12094
L16089 12111
L16072 12145
L16072 12162
L16089 12196
L16106 12214
L16141 12231
L16209 12231
L16243 12248
L16261 12265
L16278 12299
L16278 12368
L16261 12402
L16243 12419
L16209 12436
L16141 12436
L16106 12419
L16089 12402
L16072 12368
L16072 12299
L16089 12265
L16106 12248
L16141 12231
" />
<path d="M15729 12436
L15935 12436
" />
<path d="M15832 12436
L15832 12076
L15866 12128
L15901 12162
L15935 12179
" />
<path d="M15592 12111
L15575 12094
L15541 12076
L15455 12076
L15421 12094
L15403 12111
L15386 12145
L15386 12179
L15403 12231
L15609 12436
L15386 12436
" />
<path d="M15232 12299
L14958 12299
" />
<path d="M14803 12111
L14786 12094
L14752 12076
L14666 12076
L14632 12094
L14615 12111
L14598 12145
L14598 12179
L14615 12231
L14821 12436
L14598 12436
" />
<path d="M14375 12076
L14341 12076
L14306 12094
L14289 12111
L14272 12145
L14255 12214
L14255 12299
L14272 12368
L14289 12402
L14306 12419
L14341 12436
L14375 12436
L14409 12419
L14426 12402
L14443 12368
L14461 12299
L14461 12214
L14443 12145
L14426 12111
L14409 12094
L14375 12076
" />
<path d="M14118 12111
L14101 12094
L14066 12076
L13981 12076
L13946 12094
L13929 12111
L13912 12145
L13912 12179
L13929 12231
L14135 12436
L13912 12436
" />
<path d="M13689 12076
L13655 12076
L13621 12094
L13603 12111
L13586 12145
L13569 12214
L13569 12299
L13586 12368
L13603 12402
L13621 12419
L13655 12436
L13689 12436
L13723 12419
L13741 12402
L13758 12368
L13775 12299
L13775 12214
L13758 12145
L13741 12111
L13723 12094
L13689 12076
" />
<path d="M16552 13036
L16552 12676
" />
<path d="M16552 12814
L16518 12796
L16449 12796
L16415 12814
L16398 12831
L16381 12865
L16381 12968
L16398 13002
L16415 13019
L16449 13036
L16518 13036
L16552 13019
" />
<path d="M16226 13036
L16226 12796
" />
<path d="M16226 12865
L16209 12831
L16192 12814
L16158 12796
L16123 12796
" />
<path d="M15866 13019
L15901 13036
L15969 13036
L16003 13019
L16021 12985
L16021 12848
L16003 12814
L15969 12796
L15901 12796
L15866 12814
L15849 12848
L15849 12882
L16021 12916
" />
<path d="M15541 13036
L15541 12848
L15558 12814
L15592 12796
L15661 12796
L15695 12814
" />
<path d="M15541 13019
L15575 13036
L15661 13036
L15695 13019
L15712 12985
L15712 12951
L15695 12916
L15661 12899
L15575 12899
L15541 12882
" />
<path d="M15369 13036
L15369 12676
" />
<path d="M15335 12899
L15232 13036
" />
<path d="M15232 12796
L15369 12934
" />
<path d="M15026 13036
L15061 13019
L15078 13002
L15095 12968
L15095 12865
L15078 12831
L15061 12814
L15026 12796
L14975 12796
L14941 12814
L14923 12831
L14906 12865
L14906 12968
L14923 13002
L14941 13019
L14975 13036
L15026 13036
" />
<path d="M14598 12796
L14598 13036
" />
<path d="M14752 12796
L14752 12985
L14735 13019
L14701 13036
L14649 13036
L14615 13019
L14598 13002
" />
<path d="M14478 12796
L14341 12796
" />
<path d="M14426 12676
L14426 12985
L14409 13019
L14375 13036
L14341 13036
" />
<path d="M17332 13396
L17195 13396
" />
<path d="M17281 13276
L17281 13585
L17263 13619
L17229 13636
L17195 13636
" />
<path d="M17075 13636
L17075 13396
" />
<path d="M17075 13276
L17092 13294
L17075 13311
L17058 13294
L17075 13276
L17075 13311
" />
<path d="M16903 13396
L16903 13636
" />
<path d="M16903 13431
L16886 13414
L16852 13396
L16801 13396
L16766 13414
L16749 13448
L16749 13636
" />
<path d="M16612 13396
L16526 13636
" />
<path d="M16441 13396
L16526 13636
L16561 13722
L16578 13739
L16612 13756
" />
<path d="M16149 13619
L16183 13636
L16252 13636
L16286 13619
L16303 13602
L16321 13568
L16321 13465
L16303 13431
L16286 13414
L16252 13396
L16183 13396
L16149 13414
" />
<path d="M15943 13636
L15978 13619
L15995 13585
L15995 13276
" />
<path d="M15755 13636
L15789 13619
L15806 13602
L15823 13568
L15823 13465
L15806 13431
L15789 13414
L15755 13396
L15703 13396
L15669 13414
L15652 13431
L15635 13465
L15635 13568
L15652 13602
L15669 13619
L15703 13636
L15755 13636
" />
<path d="M15326 13396
L15326 13636
" />
<path d="M15481 13396
L15481 13585
L15463 13619
L15429 13636
L15378 13636
L15343 13619
L15326 13602
" />
<path d="M15001 13636
L15001 13276
" />
<path d="M15001 13619
L15035 13636
L15103 13636
L15138 13619
L15155 13602
L15172 13568
L15172 13465
L15155 13431
L15138 13414
L15103 13396
L15035 13396
L15001 13414
" />
<path d="M14846 13619
L14812 13636
L14743 13636
L14709 13619
L14692 13585
L14692 13568
L14709 13534
L14743 13516
L14795 13516
L14829 13499
L14846 13465
L14846 13448
L14829 13414
L14795 13396
L14743 13396
L14709 13414
" />
<path d="M14538 13602
L14521 13619
L14538 13636
L14555 13619
L14538 13602
L14538 13636
" />
<path d="M14315 13636
L14349 13619
L14366 13602
L14383 13568
L14383 13465
L14366 13431
L14349 13414
L14315 13396
L14263 13396
L14229 13414
L14212 13431
L14195 13465
L14195 13568
L14212 13602
L14229 13619
L14263 13636
L14315 13636
" />
<path d="M14041 13636
L14041 13396
" />
<path d="M14041 13465
L14023 13431
L14006 13414
L13972 13396
L13938 13396
" />
<path d="M13663 13396
L13663 13688
L13681 13722
L13698 13739
L13732 13756
L13783 13756
L13818 13739
" />
<path d="M13663 13619
L13698 13636
L13766 13636
L13801 13619
L13818 13602
L13835 13568
L13835 13465
L13818 13431
L13801 13414
L13766 13396
L13698 13396
L13663 13414
" />
</g>
<g style="fill:#000000; fill-opacity:0.0; 
stroke:#000000; stroke-width:47.2441; stroke-opacity:1; 
stroke-linecap:round; stroke-linejoin:round;">
<path d="M17476 13773
L18000 13773
" />
<path d="M17476 13250
L17476 13773
" />
<path d="M17476 12750
L18523 12750
" />
<path d="M18523 12750
L18523 11726
" />
<path d="M17476 12750
L17476 11726
" />
<path d="M17476 11726
L18523 11726
" />
<path d="M12476 13799
L13000 13799
" />
<path d="M12476 13275
L12476 13799
" />
<path d="M12476 12775
L13523 12775
" />
<path d="M13523 12775
L13523 11751
" />
<path d="M12476 12775
L12476 11751
" />
<path d="M12476 11751
L13523 11751
" />
<g >
</g>
</g> 
</svg>
