<?xml version="1.0" standalone="no"?>
 <!DOCTYPE svg PUBLIC "-//W3C//DTD SVG 1.1//EN" 
 "http://www.w3.org/Graphics/SVG/1.1/DTD/svg11.dtd"> 
<svg xmlns="http://www.w3.org/2000/svg" version="1.1" 
    width="29.7002cm" height="21.0007cm" viewBox="0 0 116930 82680 ">
<title>SVG Picture created as ws2812-2020-breakout-F_SilkS.svg date 2019/11/14 19:58:50 </title>
  <desc>Picture generated by PCBNEW </desc>
<g style="fill:#000000; fill-opacity:1;stroke:#000000; stroke-opacity:1;
stroke-linecap:round; stroke-linejoin:round; "
 transform="translate(0 0) scale(1 1)">
</g>
<g style="fill:#000000; fill-opacity:0.0; 
stroke:#000000; stroke-width:-0.000393701; stroke-opacity:1; 
stroke-linecap:round; stroke-linejoin:round;">
</g>
<g style="fill:#000000; fill-opacity:0.0; 
stroke:#000000; stroke-width:60; stroke-opacity:1; 
stroke-linecap:round; stroke-linejoin:round;">
<path d="M16654 13442
L16620 13424
L16569 13424
L16517 13442
L16483 13476
L16466 13510
L16449 13579
L16449 13630
L16466 13699
L16483 13733
L16517 13767
L16569 13784
L16603 13784
L16654 13767
L16671 13750
L16671 13630
L16603 13630
" />
<path d="M16826 13784
L16826 13424
L17031 13784
L17031 13424
" />
<path d="M17203 13784
L17203 13424
L17289 13424
L17340 13442
L17374 13476
L17391 13510
L17409 13579
L17409 13630
L17391 13699
L17374 13733
L17340 13767
L17289 13784
L17203 13784
" />
<path d="M13496 13424
L13616 13784
L13736 13424
" />
<path d="M13856 13784
L13856 13424
L13942 13424
L13993 13442
L14027 13476
L14044 13510
L14062 13579
L14062 13630
L14044 13699
L14027 13733
L13993 13767
L13942 13784
L13856 13784
" />
<path d="M14216 13784
L14216 13424
L14302 13424
L14353 13442
L14387 13476
L14404 13510
L14422 13579
L14422 13630
L14404 13699
L14387 13733
L14353 13767
L14302 13784
L14216 13784
" />
<path d="M16803 12131
L16803 11771
L16889 11771
L16940 11788
L16975 11822
L16992 11857
L17009 11925
L17009 11977
L16992 12045
L16975 12079
L16940 12114
L16889 12131
L16803 12131
" />
<path d="M17232 11771
L17300 11771
L17335 11788
L17369 11822
L17386 11891
L17386 12011
L17369 12079
L17335 12114
L17300 12131
L17232 12131
L17198 12114
L17163 12079
L17146 12011
L17146 11891
L17163 11822
L17198 11788
L17232 11771
" />
<path d="M13560 12170
L13560 11810
L13645 11810
L13697 11827
L13731 11862
L13748 11896
L13765 11965
L13765 12016
L13748 12085
L13731 12119
L13697 12153
L13645 12170
L13560 12170
" />
<path d="M13920 12170
L13920 11810
" />
<path d="M14534 11793
L14610 12113
L14671 11884
L14732 12113
L14808 11793
" />
<path d="M14914 12098
L14960 12113
L15036 12113
L15067 12098
L15082 12082
L15097 12052
L15097 12021
L15082 11991
L15067 11976
L15036 11960
L14975 11945
L14945 11930
L14930 11915
L14914 11884
L14914 11854
L14930 11823
L14945 11808
L14975 11793
L15052 11793
L15097 11808
" />
<path d="M15219 11823
L15234 11808
L15265 11793
L15341 11793
L15372 11808
L15387 11823
L15402 11854
L15402 11884
L15387 11930
L15204 12113
L15402 12113
" />
<path d="M15585 11930
L15554 11915
L15539 11899
L15524 11869
L15524 11854
L15539 11823
L15554 11808
L15585 11793
L15646 11793
L15676 11808
L15692 11823
L15707 11854
L15707 11869
L15692 11899
L15676 11915
L15646 11930
L15585 11930
L15554 11945
L15539 11960
L15524 11991
L15524 12052
L15539 12082
L15554 12098
L15585 12113
L15646 12113
L15676 12098
L15692 12082
L15707 12052
L15707 11991
L15692 11960
L15676 11945
L15646 11930
" />
<path d="M16012 12113
L15829 12113
" />
<path d="M15920 12113
L15920 11793
L15890 11838
L15859 11869
L15829 11884
" />
<path d="M16134 11823
L16149 11808
L16179 11793
L16255 11793
L16286 11808
L16301 11823
L16316 11854
L16316 11884
L16301 11930
L16118 12113
L16316 12113
" />
</g>
<g style="fill:#000000; fill-opacity:1.0; 
stroke:#000000; stroke-width:3.93701; stroke-opacity:1; 
stroke-linecap:round; stroke-linejoin:round;">
<path style="fill:#000000; fill-opacity:1.0; 
stroke:#000000; stroke-width:3.93701; stroke-opacity:1; 
stroke-linecap:round; stroke-linejoin:round;fill-rule:evenodd;"
d="M 15413,12742
15413,12585
15137,12585
15137,12742
Z" /> 
<path style="fill:#000000; fill-opacity:1.0; 
stroke:#000000; stroke-width:3.93701; stroke-opacity:1; 
stroke-linecap:round; stroke-linejoin:round;fill-rule:evenodd;"
d="M 14507,12742
14507,12585
14232,12585
14232,12742
Z" /> 
<path style="fill:#000000; fill-opacity:1.0; 
stroke:#000000; stroke-width:3.93701; stroke-opacity:1; 
stroke-linecap:round; stroke-linejoin:round;fill-rule:evenodd;"
d="M 17224,12742
17224,12585
16948,12585
16948,12742
Z" /> 
<path style="fill:#000000; fill-opacity:1.0; 
stroke:#000000; stroke-width:3.93701; stroke-opacity:1; 
stroke-linecap:round; stroke-linejoin:round;fill-rule:evenodd;"
d="M 16318,12742
16318,12585
16043,12585
16043,12742
Z" /> 
<g >
</g>
</g> 
</svg>
