<?xml version="1.0" standalone="no"?>
 <!DOCTYPE svg PUBLIC "-//W3C//DTD SVG 1.1//EN" 
 "http://www.w3.org/Graphics/SVG/1.1/DTD/svg11.dtd"> 
<svg xmlns="http://www.w3.org/2000/svg" version="1.1" 
    width="29.7002cm" height="21.0007cm" viewBox="0 0 116930 82680 ">
<title>SVG Picture created as ws2812-2020-breakout-B_Mask.svg date 2019/11/14 19:58:50 </title>
  <desc>Picture generated by PCBNEW </desc>
<g style="fill:#000000; fill-opacity:1;stroke:#000000; stroke-opacity:1;
stroke-linecap:round; stroke-linejoin:round; "
 transform="translate(0 0) scale(1 1)">
</g>
<g style="fill:#000000; fill-opacity:0.0; 
stroke:#000000; stroke-width:-0.000393701; stroke-opacity:1; 
stroke-linecap:round; stroke-linejoin:round;">
</g>
<g style="fill:#000000; fill-opacity:1.0; 
stroke:#000000; stroke-width:0; stroke-opacity:1; 
stroke-linecap:round; stroke-linejoin:round;">
<path style="fill:#000000; fill-opacity:1.0; 
stroke:#000000; stroke-width:0; stroke-opacity:1; 
stroke-linecap:round; stroke-linejoin:round;fill-rule:evenodd;"
d="M 13354,13630
12645,13630
12645,12920
13354,12920
13354,13630
Z" /> 
<path style="fill:#000000; fill-opacity:1.0; 
stroke:#000000; stroke-width:0; stroke-opacity:1; 
stroke-linecap:round; stroke-linejoin:round;fill-rule:evenodd;"
d="M 18354,13604
17645,13604
17645,12895
18354,12895
18354,13604
Z" /> 
<path style="fill:#000000; fill-opacity:1.0; 
stroke:#000000; stroke-width:0; stroke-opacity:1; 
stroke-linecap:round; stroke-linejoin:round;fill-rule:evenodd;"
d="M 13043,11923
13069,11925
13136,11946
13136,11946
13167,11962
13198,11979
13212,11990
13252,12023
13284,12063
13296,12077
13329,12139
13349,12206
13356,12275
13349,12345
13329,12411
13296,12473
13284,12487
13252,12527
13212,12560
13198,12571
13136,12604
13069,12625
13043,12627
13017,12630
12982,12630
12956,12627
12930,12625
12863,12604
12801,12571
12787,12560
12747,12527
12715,12487
12703,12473
12670,12411
12650,12345
12643,12275
12650,12206
12670,12139
12703,12077
12715,12063
12747,12023
12787,11990
12801,11979
12832,11962
12863,11946
12863,11946
12930,11925
12956,11923
12982,11920
13017,11920
13043,11923
Z" /> 
<path style="fill:#000000; fill-opacity:1.0; 
stroke:#000000; stroke-width:0; stroke-opacity:1; 
stroke-linecap:round; stroke-linejoin:round;fill-rule:evenodd;"
d="M 18043,11897
18069,11900
18136,11920
18198,11953
18212,11965
18252,11997
18284,12037
18296,12051
18329,12113
18349,12180
18356,12250
18349,12319
18329,12386
18296,12448
18284,12462
18252,12502
18220,12527
18198,12546
18198,12546
18150,12571
18136,12579
18069,12599
18043,12602
18017,12604
17982,12604
17956,12602
17930,12599
17863,12579
17849,12571
17801,12546
17801,12546
17779,12527
17747,12502
17715,12462
17703,12448
17670,12386
17650,12319
17643,12250
17650,12180
17670,12113
17703,12051
17715,12037
17747,11997
17787,11965
17801,11953
17863,11920
17930,11900
17956,11897
17982,11895
18017,11895
18043,11897
Z" /> 
</g> 
</svg>
