G04 #@! TF.GenerationSoftware,KiCad,Pcbnew,(5.1.4-0-10_14)*
G04 #@! TF.CreationDate,2019-11-14T21:06:26-05:00*
G04 #@! TF.ProjectId,ws2812-2020-breakout,77733238-3132-42d3-9230-32302d627265,rev?*
G04 #@! TF.SameCoordinates,Original*
G04 #@! TF.FileFunction,Copper,L1,Top*
G04 #@! TF.FilePolarity,Positive*
%FSLAX46Y46*%
G04 Gerber Fmt 4.6, Leading zero omitted, Abs format (unit mm)*
G04 Created by KiCad (PCBNEW (5.1.4-0-10_14)) date 2019-11-14 21:06:26*
%MOMM*%
%LPD*%
G04 APERTURE LIST*
%ADD10O,1.700000X1.700000*%
%ADD11C,1.700000*%
%ADD12R,0.700000X0.700000*%
%ADD13C,0.450000*%
%ADD14C,0.250000*%
%ADD15C,0.254000*%
G04 APERTURE END LIST*
D10*
X45720000Y-31115000D03*
D11*
X45720000Y-33655000D03*
D10*
X33020000Y-31180000D03*
D11*
X33020000Y-33720000D03*
D12*
X37700000Y-33417000D03*
X38800000Y-33417000D03*
X38800000Y-31587000D03*
X37700000Y-31587000D03*
X35400000Y-33417000D03*
X36500000Y-33417000D03*
X36500000Y-31587000D03*
X35400000Y-31587000D03*
X42300000Y-33417000D03*
X43400000Y-33417000D03*
X43400000Y-31587000D03*
X42300000Y-31587000D03*
X40000000Y-33417000D03*
X41100000Y-33417000D03*
X41100000Y-31587000D03*
X40000000Y-31587000D03*
D13*
X34330000Y-32510000D03*
D14*
X34493000Y-32510000D02*
X35400000Y-33417000D01*
X34330000Y-32510000D02*
X34493000Y-32510000D01*
X36500000Y-32217000D02*
X37700000Y-33417000D01*
X36500000Y-31587000D02*
X36500000Y-32217000D01*
X38800000Y-32217000D02*
X40000000Y-33417000D01*
X38800000Y-31587000D02*
X38800000Y-32217000D01*
X41100000Y-32217000D02*
X42300000Y-33417000D01*
X41100000Y-31587000D02*
X41100000Y-32217000D01*
X43872000Y-31115000D02*
X43400000Y-31587000D01*
X45720000Y-31115000D02*
X43872000Y-31115000D01*
D15*
G36*
X42573000Y-30817271D02*
G01*
X42519463Y-30882506D01*
X42460498Y-30992820D01*
X42424188Y-31112518D01*
X42411928Y-31237000D01*
X42411928Y-31723000D01*
X42088072Y-31723000D01*
X42088072Y-31237000D01*
X42075812Y-31112518D01*
X42039502Y-30992820D01*
X41980537Y-30882506D01*
X41901185Y-30785815D01*
X41804494Y-30706463D01*
X41694180Y-30647498D01*
X41574482Y-30611188D01*
X41450000Y-30598928D01*
X40750000Y-30598928D01*
X40625518Y-30611188D01*
X40505820Y-30647498D01*
X40395506Y-30706463D01*
X40298815Y-30785815D01*
X40219463Y-30882506D01*
X40160498Y-30992820D01*
X40124188Y-31112518D01*
X40111928Y-31237000D01*
X40111928Y-31723000D01*
X39788072Y-31723000D01*
X39788072Y-31237000D01*
X39775812Y-31112518D01*
X39739502Y-30992820D01*
X39680537Y-30882506D01*
X39601185Y-30785815D01*
X39504494Y-30706463D01*
X39394180Y-30647498D01*
X39274482Y-30611188D01*
X39150000Y-30598928D01*
X38450000Y-30598928D01*
X38325518Y-30611188D01*
X38205820Y-30647498D01*
X38095506Y-30706463D01*
X37998815Y-30785815D01*
X37919463Y-30882506D01*
X37860498Y-30992820D01*
X37824188Y-31112518D01*
X37811928Y-31237000D01*
X37811928Y-31723000D01*
X37488072Y-31723000D01*
X37488072Y-31237000D01*
X37475812Y-31112518D01*
X37439502Y-30992820D01*
X37380537Y-30882506D01*
X37301185Y-30785815D01*
X37204494Y-30706463D01*
X37094180Y-30647498D01*
X36974482Y-30611188D01*
X36850000Y-30598928D01*
X36150000Y-30598928D01*
X36025518Y-30611188D01*
X35905820Y-30647498D01*
X35795506Y-30706463D01*
X35698815Y-30785815D01*
X35619463Y-30882506D01*
X35560498Y-30992820D01*
X35524188Y-31112518D01*
X35511928Y-31237000D01*
X35511928Y-31723000D01*
X34677303Y-31723000D01*
X34580853Y-31683049D01*
X34414703Y-31650000D01*
X34245297Y-31650000D01*
X34079147Y-31683049D01*
X33982697Y-31723000D01*
X32827000Y-31723000D01*
X32827000Y-30360000D01*
X42573000Y-30360000D01*
X42573000Y-30817271D01*
X42573000Y-30817271D01*
G37*
X42573000Y-30817271D02*
X42519463Y-30882506D01*
X42460498Y-30992820D01*
X42424188Y-31112518D01*
X42411928Y-31237000D01*
X42411928Y-31723000D01*
X42088072Y-31723000D01*
X42088072Y-31237000D01*
X42075812Y-31112518D01*
X42039502Y-30992820D01*
X41980537Y-30882506D01*
X41901185Y-30785815D01*
X41804494Y-30706463D01*
X41694180Y-30647498D01*
X41574482Y-30611188D01*
X41450000Y-30598928D01*
X40750000Y-30598928D01*
X40625518Y-30611188D01*
X40505820Y-30647498D01*
X40395506Y-30706463D01*
X40298815Y-30785815D01*
X40219463Y-30882506D01*
X40160498Y-30992820D01*
X40124188Y-31112518D01*
X40111928Y-31237000D01*
X40111928Y-31723000D01*
X39788072Y-31723000D01*
X39788072Y-31237000D01*
X39775812Y-31112518D01*
X39739502Y-30992820D01*
X39680537Y-30882506D01*
X39601185Y-30785815D01*
X39504494Y-30706463D01*
X39394180Y-30647498D01*
X39274482Y-30611188D01*
X39150000Y-30598928D01*
X38450000Y-30598928D01*
X38325518Y-30611188D01*
X38205820Y-30647498D01*
X38095506Y-30706463D01*
X37998815Y-30785815D01*
X37919463Y-30882506D01*
X37860498Y-30992820D01*
X37824188Y-31112518D01*
X37811928Y-31237000D01*
X37811928Y-31723000D01*
X37488072Y-31723000D01*
X37488072Y-31237000D01*
X37475812Y-31112518D01*
X37439502Y-30992820D01*
X37380537Y-30882506D01*
X37301185Y-30785815D01*
X37204494Y-30706463D01*
X37094180Y-30647498D01*
X36974482Y-30611188D01*
X36850000Y-30598928D01*
X36150000Y-30598928D01*
X36025518Y-30611188D01*
X35905820Y-30647498D01*
X35795506Y-30706463D01*
X35698815Y-30785815D01*
X35619463Y-30882506D01*
X35560498Y-30992820D01*
X35524188Y-31112518D01*
X35511928Y-31237000D01*
X35511928Y-31723000D01*
X34677303Y-31723000D01*
X34580853Y-31683049D01*
X34414703Y-31650000D01*
X34245297Y-31650000D01*
X34079147Y-31683049D01*
X33982697Y-31723000D01*
X32827000Y-31723000D01*
X32827000Y-30360000D01*
X42573000Y-30360000D01*
X42573000Y-30817271D01*
G36*
X43573000Y-34540000D02*
G01*
X32877000Y-34540000D01*
X32877000Y-33176711D01*
X33778430Y-33174653D01*
X33781782Y-33178005D01*
X33922637Y-33272122D01*
X34079147Y-33336951D01*
X34245297Y-33370000D01*
X34278199Y-33370000D01*
X34411928Y-33503730D01*
X34411928Y-33767000D01*
X34424188Y-33891482D01*
X34460498Y-34011180D01*
X34519463Y-34121494D01*
X34598815Y-34218185D01*
X34695506Y-34297537D01*
X34805820Y-34356502D01*
X34925518Y-34392812D01*
X35050000Y-34405072D01*
X35750000Y-34405072D01*
X35874482Y-34392812D01*
X35994180Y-34356502D01*
X36104494Y-34297537D01*
X36201185Y-34218185D01*
X36280537Y-34121494D01*
X36339502Y-34011180D01*
X36375812Y-33891482D01*
X36388072Y-33767000D01*
X36388072Y-33179873D01*
X36711928Y-33503730D01*
X36711928Y-33767000D01*
X36724188Y-33891482D01*
X36760498Y-34011180D01*
X36819463Y-34121494D01*
X36898815Y-34218185D01*
X36995506Y-34297537D01*
X37105820Y-34356502D01*
X37225518Y-34392812D01*
X37350000Y-34405072D01*
X38050000Y-34405072D01*
X38174482Y-34392812D01*
X38294180Y-34356502D01*
X38404494Y-34297537D01*
X38501185Y-34218185D01*
X38580537Y-34121494D01*
X38639502Y-34011180D01*
X38675812Y-33891482D01*
X38688072Y-33767000D01*
X38688072Y-33179873D01*
X39011928Y-33503730D01*
X39011928Y-33767000D01*
X39024188Y-33891482D01*
X39060498Y-34011180D01*
X39119463Y-34121494D01*
X39198815Y-34218185D01*
X39295506Y-34297537D01*
X39405820Y-34356502D01*
X39525518Y-34392812D01*
X39650000Y-34405072D01*
X40350000Y-34405072D01*
X40474482Y-34392812D01*
X40594180Y-34356502D01*
X40704494Y-34297537D01*
X40801185Y-34218185D01*
X40880537Y-34121494D01*
X40939502Y-34011180D01*
X40975812Y-33891482D01*
X40988072Y-33767000D01*
X40988072Y-33179873D01*
X41311928Y-33503730D01*
X41311928Y-33767000D01*
X41324188Y-33891482D01*
X41360498Y-34011180D01*
X41419463Y-34121494D01*
X41498815Y-34218185D01*
X41595506Y-34297537D01*
X41705820Y-34356502D01*
X41825518Y-34392812D01*
X41950000Y-34405072D01*
X42650000Y-34405072D01*
X42774482Y-34392812D01*
X42894180Y-34356502D01*
X43004494Y-34297537D01*
X43101185Y-34218185D01*
X43180537Y-34121494D01*
X43239502Y-34011180D01*
X43275812Y-33891482D01*
X43288072Y-33767000D01*
X43288072Y-33152942D01*
X43573000Y-33152291D01*
X43573000Y-34540000D01*
X43573000Y-34540000D01*
G37*
X43573000Y-34540000D02*
X32877000Y-34540000D01*
X32877000Y-33176711D01*
X33778430Y-33174653D01*
X33781782Y-33178005D01*
X33922637Y-33272122D01*
X34079147Y-33336951D01*
X34245297Y-33370000D01*
X34278199Y-33370000D01*
X34411928Y-33503730D01*
X34411928Y-33767000D01*
X34424188Y-33891482D01*
X34460498Y-34011180D01*
X34519463Y-34121494D01*
X34598815Y-34218185D01*
X34695506Y-34297537D01*
X34805820Y-34356502D01*
X34925518Y-34392812D01*
X35050000Y-34405072D01*
X35750000Y-34405072D01*
X35874482Y-34392812D01*
X35994180Y-34356502D01*
X36104494Y-34297537D01*
X36201185Y-34218185D01*
X36280537Y-34121494D01*
X36339502Y-34011180D01*
X36375812Y-33891482D01*
X36388072Y-33767000D01*
X36388072Y-33179873D01*
X36711928Y-33503730D01*
X36711928Y-33767000D01*
X36724188Y-33891482D01*
X36760498Y-34011180D01*
X36819463Y-34121494D01*
X36898815Y-34218185D01*
X36995506Y-34297537D01*
X37105820Y-34356502D01*
X37225518Y-34392812D01*
X37350000Y-34405072D01*
X38050000Y-34405072D01*
X38174482Y-34392812D01*
X38294180Y-34356502D01*
X38404494Y-34297537D01*
X38501185Y-34218185D01*
X38580537Y-34121494D01*
X38639502Y-34011180D01*
X38675812Y-33891482D01*
X38688072Y-33767000D01*
X38688072Y-33179873D01*
X39011928Y-33503730D01*
X39011928Y-33767000D01*
X39024188Y-33891482D01*
X39060498Y-34011180D01*
X39119463Y-34121494D01*
X39198815Y-34218185D01*
X39295506Y-34297537D01*
X39405820Y-34356502D01*
X39525518Y-34392812D01*
X39650000Y-34405072D01*
X40350000Y-34405072D01*
X40474482Y-34392812D01*
X40594180Y-34356502D01*
X40704494Y-34297537D01*
X40801185Y-34218185D01*
X40880537Y-34121494D01*
X40939502Y-34011180D01*
X40975812Y-33891482D01*
X40988072Y-33767000D01*
X40988072Y-33179873D01*
X41311928Y-33503730D01*
X41311928Y-33767000D01*
X41324188Y-33891482D01*
X41360498Y-34011180D01*
X41419463Y-34121494D01*
X41498815Y-34218185D01*
X41595506Y-34297537D01*
X41705820Y-34356502D01*
X41825518Y-34392812D01*
X41950000Y-34405072D01*
X42650000Y-34405072D01*
X42774482Y-34392812D01*
X42894180Y-34356502D01*
X43004494Y-34297537D01*
X43101185Y-34218185D01*
X43180537Y-34121494D01*
X43239502Y-34011180D01*
X43275812Y-33891482D01*
X43288072Y-33767000D01*
X43288072Y-33152942D01*
X43573000Y-33152291D01*
X43573000Y-34540000D01*
M02*
