G04 #@! TF.GenerationSoftware,KiCad,Pcbnew,(5.1.4-0-10_14)*
G04 #@! TF.CreationDate,2019-11-14T21:06:26-05:00*
G04 #@! TF.ProjectId,ws2812-2020-breakout,77733238-3132-42d3-9230-32302d627265,rev?*
G04 #@! TF.SameCoordinates,Original*
G04 #@! TF.FileFunction,Legend,Top*
G04 #@! TF.FilePolarity,Positive*
%FSLAX46Y46*%
G04 Gerber Fmt 4.6, Leading zero omitted, Abs format (unit mm)*
G04 Created by KiCad (PCBNEW (5.1.4-0-10_14)) date 2019-11-14 21:06:26*
%MOMM*%
%LPD*%
G04 APERTURE LIST*
%ADD10C,0.152400*%
%ADD11C,0.010000*%
G04 APERTURE END LIST*
D10*
X34613314Y-29982800D02*
X34526228Y-29939257D01*
X34395600Y-29939257D01*
X34264971Y-29982800D01*
X34177885Y-30069885D01*
X34134342Y-30156971D01*
X34090800Y-30331142D01*
X34090800Y-30461771D01*
X34134342Y-30635942D01*
X34177885Y-30723028D01*
X34264971Y-30810114D01*
X34395600Y-30853657D01*
X34482685Y-30853657D01*
X34613314Y-30810114D01*
X34656857Y-30766571D01*
X34656857Y-30461771D01*
X34482685Y-30461771D01*
X35048742Y-30853657D02*
X35048742Y-29939257D01*
X35571257Y-30853657D01*
X35571257Y-29939257D01*
X36006685Y-30853657D02*
X36006685Y-29939257D01*
X36224400Y-29939257D01*
X36355028Y-29982800D01*
X36442114Y-30069885D01*
X36485657Y-30156971D01*
X36529200Y-30331142D01*
X36529200Y-30461771D01*
X36485657Y-30635942D01*
X36442114Y-30723028D01*
X36355028Y-30810114D01*
X36224400Y-30853657D01*
X36006685Y-30853657D01*
X34280800Y-34099257D02*
X34585600Y-35013657D01*
X34890400Y-34099257D01*
X35195200Y-35013657D02*
X35195200Y-34099257D01*
X35412914Y-34099257D01*
X35543542Y-34142800D01*
X35630628Y-34229885D01*
X35674171Y-34316971D01*
X35717714Y-34491142D01*
X35717714Y-34621771D01*
X35674171Y-34795942D01*
X35630628Y-34883028D01*
X35543542Y-34970114D01*
X35412914Y-35013657D01*
X35195200Y-35013657D01*
X36109600Y-35013657D02*
X36109600Y-34099257D01*
X36327314Y-34099257D01*
X36457942Y-34142800D01*
X36545028Y-34229885D01*
X36588571Y-34316971D01*
X36632114Y-34491142D01*
X36632114Y-34621771D01*
X36588571Y-34795942D01*
X36545028Y-34883028D01*
X36457942Y-34970114D01*
X36327314Y-35013657D01*
X36109600Y-35013657D01*
X43091542Y-30853657D02*
X43091542Y-29939257D01*
X43309257Y-29939257D01*
X43439885Y-29982800D01*
X43526971Y-30069885D01*
X43570514Y-30156971D01*
X43614057Y-30331142D01*
X43614057Y-30461771D01*
X43570514Y-30635942D01*
X43526971Y-30723028D01*
X43439885Y-30810114D01*
X43309257Y-30853657D01*
X43091542Y-30853657D01*
X44180114Y-29939257D02*
X44354285Y-29939257D01*
X44441371Y-29982800D01*
X44528457Y-30069885D01*
X44572000Y-30244057D01*
X44572000Y-30548857D01*
X44528457Y-30723028D01*
X44441371Y-30810114D01*
X44354285Y-30853657D01*
X44180114Y-30853657D01*
X44093028Y-30810114D01*
X44005942Y-30723028D01*
X43962400Y-30548857D01*
X43962400Y-30244057D01*
X44005942Y-30069885D01*
X44093028Y-29982800D01*
X44180114Y-29939257D01*
X43582800Y-35033657D02*
X43582800Y-34119257D01*
X43800514Y-34119257D01*
X43931142Y-34162800D01*
X44018228Y-34249885D01*
X44061771Y-34336971D01*
X44105314Y-34511142D01*
X44105314Y-34641771D01*
X44061771Y-34815942D01*
X44018228Y-34903028D01*
X43931142Y-34990114D01*
X43800514Y-35033657D01*
X43582800Y-35033657D01*
X44497200Y-35033657D02*
X44497200Y-34119257D01*
X37786419Y-34174895D02*
X37979942Y-34987695D01*
X38134761Y-34407123D01*
X38289580Y-34987695D01*
X38483104Y-34174895D01*
X38754038Y-34948990D02*
X38870152Y-34987695D01*
X39063676Y-34987695D01*
X39141085Y-34948990D01*
X39179790Y-34910285D01*
X39218495Y-34832876D01*
X39218495Y-34755466D01*
X39179790Y-34678057D01*
X39141085Y-34639352D01*
X39063676Y-34600647D01*
X38908857Y-34561942D01*
X38831447Y-34523238D01*
X38792742Y-34484533D01*
X38754038Y-34407123D01*
X38754038Y-34329714D01*
X38792742Y-34252304D01*
X38831447Y-34213600D01*
X38908857Y-34174895D01*
X39102380Y-34174895D01*
X39218495Y-34213600D01*
X39528133Y-34252304D02*
X39566838Y-34213600D01*
X39644247Y-34174895D01*
X39837771Y-34174895D01*
X39915180Y-34213600D01*
X39953885Y-34252304D01*
X39992590Y-34329714D01*
X39992590Y-34407123D01*
X39953885Y-34523238D01*
X39489428Y-34987695D01*
X39992590Y-34987695D01*
X40457047Y-34523238D02*
X40379638Y-34484533D01*
X40340933Y-34445828D01*
X40302228Y-34368419D01*
X40302228Y-34329714D01*
X40340933Y-34252304D01*
X40379638Y-34213600D01*
X40457047Y-34174895D01*
X40611866Y-34174895D01*
X40689276Y-34213600D01*
X40727980Y-34252304D01*
X40766685Y-34329714D01*
X40766685Y-34368419D01*
X40727980Y-34445828D01*
X40689276Y-34484533D01*
X40611866Y-34523238D01*
X40457047Y-34523238D01*
X40379638Y-34561942D01*
X40340933Y-34600647D01*
X40302228Y-34678057D01*
X40302228Y-34832876D01*
X40340933Y-34910285D01*
X40379638Y-34948990D01*
X40457047Y-34987695D01*
X40611866Y-34987695D01*
X40689276Y-34948990D01*
X40727980Y-34910285D01*
X40766685Y-34832876D01*
X40766685Y-34678057D01*
X40727980Y-34600647D01*
X40689276Y-34561942D01*
X40611866Y-34523238D01*
X41540780Y-34987695D02*
X41076323Y-34987695D01*
X41308552Y-34987695D02*
X41308552Y-34174895D01*
X41231142Y-34291009D01*
X41153733Y-34368419D01*
X41076323Y-34407123D01*
X41850419Y-34252304D02*
X41889123Y-34213600D01*
X41966533Y-34174895D01*
X42160057Y-34174895D01*
X42237466Y-34213600D01*
X42276171Y-34252304D01*
X42314876Y-34329714D01*
X42314876Y-34407123D01*
X42276171Y-34523238D01*
X41811714Y-34987695D01*
X42314876Y-34987695D01*
D11*
G36*
X39150000Y-32367000D02*
G01*
X39150000Y-31967000D01*
X38450000Y-31967000D01*
X38450000Y-32367000D01*
X39150000Y-32367000D01*
G37*
X39150000Y-32367000D02*
X39150000Y-31967000D01*
X38450000Y-31967000D01*
X38450000Y-32367000D01*
X39150000Y-32367000D01*
G36*
X36850000Y-32367000D02*
G01*
X36850000Y-31967000D01*
X36150000Y-31967000D01*
X36150000Y-32367000D01*
X36850000Y-32367000D01*
G37*
X36850000Y-32367000D02*
X36850000Y-31967000D01*
X36150000Y-31967000D01*
X36150000Y-32367000D01*
X36850000Y-32367000D01*
G36*
X43750000Y-32367000D02*
G01*
X43750000Y-31967000D01*
X43050000Y-31967000D01*
X43050000Y-32367000D01*
X43750000Y-32367000D01*
G37*
X43750000Y-32367000D02*
X43750000Y-31967000D01*
X43050000Y-31967000D01*
X43050000Y-32367000D01*
X43750000Y-32367000D01*
G36*
X41450000Y-32367000D02*
G01*
X41450000Y-31967000D01*
X40750000Y-31967000D01*
X40750000Y-32367000D01*
X41450000Y-32367000D01*
G37*
X41450000Y-32367000D02*
X41450000Y-31967000D01*
X40750000Y-31967000D01*
X40750000Y-32367000D01*
X41450000Y-32367000D01*
M02*
