G04 #@! TF.GenerationSoftware,KiCad,Pcbnew,(5.1.4-0-10_14)*
G04 #@! TF.CreationDate,2019-11-14T18:35:22-05:00*
G04 #@! TF.ProjectId,ws2812-2020-breakout,77733238-3132-42d3-9230-32302d627265,rev?*
G04 #@! TF.SameCoordinates,Original*
G04 #@! TF.FileFunction,Copper,L1,Top*
G04 #@! TF.FilePolarity,Positive*
%FSLAX46Y46*%
G04 Gerber Fmt 4.6, Leading zero omitted, Abs format (unit mm)*
G04 Created by KiCad (PCBNEW (5.1.4-0-10_14)) date 2019-11-14 18:35:22*
%MOMM*%
%LPD*%
G04 APERTURE LIST*
%ADD10O,1.700000X1.700000*%
%ADD11R,1.700000X1.700000*%
%ADD12R,0.700000X0.700000*%
%ADD13C,0.250000*%
%ADD14C,0.254000*%
G04 APERTURE END LIST*
D10*
X45720000Y-31115000D03*
D11*
X45720000Y-33655000D03*
D10*
X33020000Y-31180000D03*
D11*
X33020000Y-33720000D03*
D12*
X37700000Y-33417000D03*
X38800000Y-33417000D03*
X38800000Y-31587000D03*
X37700000Y-31587000D03*
X35400000Y-33417000D03*
X36500000Y-33417000D03*
X36500000Y-31587000D03*
X35400000Y-31587000D03*
X42300000Y-33417000D03*
X43400000Y-33417000D03*
X43400000Y-31587000D03*
X42300000Y-31587000D03*
X40000000Y-33417000D03*
X41100000Y-33417000D03*
X41100000Y-31587000D03*
X40000000Y-31587000D03*
D13*
X35257000Y-33417000D02*
X35400000Y-33417000D01*
X33020000Y-31180000D02*
X35257000Y-33417000D01*
X36500000Y-32217000D02*
X37700000Y-33417000D01*
X36500000Y-31587000D02*
X36500000Y-32217000D01*
X38800000Y-32217000D02*
X40000000Y-33417000D01*
X38800000Y-31587000D02*
X38800000Y-32217000D01*
X41100000Y-32217000D02*
X42300000Y-33417000D01*
X41100000Y-31587000D02*
X41100000Y-32217000D01*
X45248000Y-31587000D02*
X45720000Y-31115000D01*
X43400000Y-31587000D02*
X45248000Y-31587000D01*
D14*
G36*
X34411928Y-33646730D02*
G01*
X34411928Y-33767000D01*
X34424188Y-33891482D01*
X34460498Y-34011180D01*
X34519463Y-34121494D01*
X34598815Y-34218185D01*
X34695506Y-34297537D01*
X34805820Y-34356502D01*
X34925518Y-34392812D01*
X35050000Y-34405072D01*
X35750000Y-34405072D01*
X35874482Y-34392812D01*
X35994180Y-34356502D01*
X36104494Y-34297537D01*
X36201185Y-34218185D01*
X36280537Y-34121494D01*
X36339502Y-34011180D01*
X36375812Y-33891482D01*
X36388072Y-33767000D01*
X36388072Y-33179873D01*
X36711928Y-33503730D01*
X36711928Y-33767000D01*
X36724188Y-33891482D01*
X36760498Y-34011180D01*
X36819463Y-34121494D01*
X36898815Y-34218185D01*
X36995506Y-34297537D01*
X37105820Y-34356502D01*
X37225518Y-34392812D01*
X37350000Y-34405072D01*
X38050000Y-34405072D01*
X38174482Y-34392812D01*
X38294180Y-34356502D01*
X38404494Y-34297537D01*
X38501185Y-34218185D01*
X38580537Y-34121494D01*
X38639502Y-34011180D01*
X38675812Y-33891482D01*
X38688072Y-33767000D01*
X38688072Y-33179873D01*
X39011928Y-33503730D01*
X39011928Y-33767000D01*
X39024188Y-33891482D01*
X39060498Y-34011180D01*
X39119463Y-34121494D01*
X39198815Y-34218185D01*
X39295506Y-34297537D01*
X39405820Y-34356502D01*
X39525518Y-34392812D01*
X39650000Y-34405072D01*
X40350000Y-34405072D01*
X40474482Y-34392812D01*
X40594180Y-34356502D01*
X40704494Y-34297537D01*
X40801185Y-34218185D01*
X40880537Y-34121494D01*
X40939502Y-34011180D01*
X40975812Y-33891482D01*
X40988072Y-33767000D01*
X40988072Y-33179873D01*
X41311928Y-33503730D01*
X41311928Y-33767000D01*
X41324188Y-33891482D01*
X41360498Y-34011180D01*
X41419463Y-34121494D01*
X41498815Y-34218185D01*
X41595506Y-34297537D01*
X41705820Y-34356502D01*
X41825518Y-34392812D01*
X41950000Y-34405072D01*
X42650000Y-34405072D01*
X42774482Y-34392812D01*
X42894180Y-34356502D01*
X43004494Y-34297537D01*
X43101185Y-34218185D01*
X43180537Y-34121494D01*
X43239502Y-34011180D01*
X43275812Y-33891482D01*
X43288072Y-33767000D01*
X43288072Y-33067000D01*
X43275812Y-32942518D01*
X43271105Y-32927000D01*
X43873000Y-32927000D01*
X43873000Y-34540000D01*
X32260000Y-34540000D01*
X32260000Y-32927000D01*
X33692199Y-32927000D01*
X34411928Y-33646730D01*
X34411928Y-33646730D01*
G37*
X34411928Y-33646730D02*
X34411928Y-33767000D01*
X34424188Y-33891482D01*
X34460498Y-34011180D01*
X34519463Y-34121494D01*
X34598815Y-34218185D01*
X34695506Y-34297537D01*
X34805820Y-34356502D01*
X34925518Y-34392812D01*
X35050000Y-34405072D01*
X35750000Y-34405072D01*
X35874482Y-34392812D01*
X35994180Y-34356502D01*
X36104494Y-34297537D01*
X36201185Y-34218185D01*
X36280537Y-34121494D01*
X36339502Y-34011180D01*
X36375812Y-33891482D01*
X36388072Y-33767000D01*
X36388072Y-33179873D01*
X36711928Y-33503730D01*
X36711928Y-33767000D01*
X36724188Y-33891482D01*
X36760498Y-34011180D01*
X36819463Y-34121494D01*
X36898815Y-34218185D01*
X36995506Y-34297537D01*
X37105820Y-34356502D01*
X37225518Y-34392812D01*
X37350000Y-34405072D01*
X38050000Y-34405072D01*
X38174482Y-34392812D01*
X38294180Y-34356502D01*
X38404494Y-34297537D01*
X38501185Y-34218185D01*
X38580537Y-34121494D01*
X38639502Y-34011180D01*
X38675812Y-33891482D01*
X38688072Y-33767000D01*
X38688072Y-33179873D01*
X39011928Y-33503730D01*
X39011928Y-33767000D01*
X39024188Y-33891482D01*
X39060498Y-34011180D01*
X39119463Y-34121494D01*
X39198815Y-34218185D01*
X39295506Y-34297537D01*
X39405820Y-34356502D01*
X39525518Y-34392812D01*
X39650000Y-34405072D01*
X40350000Y-34405072D01*
X40474482Y-34392812D01*
X40594180Y-34356502D01*
X40704494Y-34297537D01*
X40801185Y-34218185D01*
X40880537Y-34121494D01*
X40939502Y-34011180D01*
X40975812Y-33891482D01*
X40988072Y-33767000D01*
X40988072Y-33179873D01*
X41311928Y-33503730D01*
X41311928Y-33767000D01*
X41324188Y-33891482D01*
X41360498Y-34011180D01*
X41419463Y-34121494D01*
X41498815Y-34218185D01*
X41595506Y-34297537D01*
X41705820Y-34356502D01*
X41825518Y-34392812D01*
X41950000Y-34405072D01*
X42650000Y-34405072D01*
X42774482Y-34392812D01*
X42894180Y-34356502D01*
X43004494Y-34297537D01*
X43101185Y-34218185D01*
X43180537Y-34121494D01*
X43239502Y-34011180D01*
X43275812Y-33891482D01*
X43288072Y-33767000D01*
X43288072Y-33067000D01*
X43275812Y-32942518D01*
X43271105Y-32927000D01*
X43873000Y-32927000D01*
X43873000Y-34540000D01*
X32260000Y-34540000D01*
X32260000Y-32927000D01*
X33692199Y-32927000D01*
X34411928Y-33646730D01*
M02*
