G04 #@! TF.GenerationSoftware,KiCad,Pcbnew,(5.1.4-0-10_14)*
G04 #@! TF.CreationDate,2019-11-14T21:06:26-05:00*
G04 #@! TF.ProjectId,ws2812-2020-breakout,77733238-3132-42d3-9230-32302d627265,rev?*
G04 #@! TF.SameCoordinates,Original*
G04 #@! TF.FileFunction,Legend,Bot*
G04 #@! TF.FilePolarity,Positive*
%FSLAX46Y46*%
G04 Gerber Fmt 4.6, Leading zero omitted, Abs format (unit mm)*
G04 Created by KiCad (PCBNEW (5.1.4-0-10_14)) date 2019-11-14 21:06:26*
%MOMM*%
%LPD*%
G04 APERTURE LIST*
%ADD10C,0.152400*%
%ADD11C,0.120000*%
G04 APERTURE END LIST*
D10*
X44176800Y-30675257D02*
X43959085Y-31589657D01*
X43784914Y-30936514D01*
X43610742Y-31589657D01*
X43393028Y-30675257D01*
X43088228Y-31546114D02*
X42957600Y-31589657D01*
X42739885Y-31589657D01*
X42652800Y-31546114D01*
X42609257Y-31502571D01*
X42565714Y-31415485D01*
X42565714Y-31328400D01*
X42609257Y-31241314D01*
X42652800Y-31197771D01*
X42739885Y-31154228D01*
X42914057Y-31110685D01*
X43001142Y-31067142D01*
X43044685Y-31023600D01*
X43088228Y-30936514D01*
X43088228Y-30849428D01*
X43044685Y-30762342D01*
X43001142Y-30718800D01*
X42914057Y-30675257D01*
X42696342Y-30675257D01*
X42565714Y-30718800D01*
X42217371Y-30762342D02*
X42173828Y-30718800D01*
X42086742Y-30675257D01*
X41869028Y-30675257D01*
X41781942Y-30718800D01*
X41738400Y-30762342D01*
X41694857Y-30849428D01*
X41694857Y-30936514D01*
X41738400Y-31067142D01*
X42260914Y-31589657D01*
X41694857Y-31589657D01*
X41172342Y-31067142D02*
X41259428Y-31023600D01*
X41302971Y-30980057D01*
X41346514Y-30892971D01*
X41346514Y-30849428D01*
X41302971Y-30762342D01*
X41259428Y-30718800D01*
X41172342Y-30675257D01*
X40998171Y-30675257D01*
X40911085Y-30718800D01*
X40867542Y-30762342D01*
X40824000Y-30849428D01*
X40824000Y-30892971D01*
X40867542Y-30980057D01*
X40911085Y-31023600D01*
X40998171Y-31067142D01*
X41172342Y-31067142D01*
X41259428Y-31110685D01*
X41302971Y-31154228D01*
X41346514Y-31241314D01*
X41346514Y-31415485D01*
X41302971Y-31502571D01*
X41259428Y-31546114D01*
X41172342Y-31589657D01*
X40998171Y-31589657D01*
X40911085Y-31546114D01*
X40867542Y-31502571D01*
X40824000Y-31415485D01*
X40824000Y-31241314D01*
X40867542Y-31154228D01*
X40911085Y-31110685D01*
X40998171Y-31067142D01*
X39953142Y-31589657D02*
X40475657Y-31589657D01*
X40214400Y-31589657D02*
X40214400Y-30675257D01*
X40301485Y-30805885D01*
X40388571Y-30892971D01*
X40475657Y-30936514D01*
X39604800Y-30762342D02*
X39561257Y-30718800D01*
X39474171Y-30675257D01*
X39256457Y-30675257D01*
X39169371Y-30718800D01*
X39125828Y-30762342D01*
X39082285Y-30849428D01*
X39082285Y-30936514D01*
X39125828Y-31067142D01*
X39648342Y-31589657D01*
X39082285Y-31589657D01*
X38690400Y-31241314D02*
X37993714Y-31241314D01*
X37601828Y-30762342D02*
X37558285Y-30718800D01*
X37471200Y-30675257D01*
X37253485Y-30675257D01*
X37166400Y-30718800D01*
X37122857Y-30762342D01*
X37079314Y-30849428D01*
X37079314Y-30936514D01*
X37122857Y-31067142D01*
X37645371Y-31589657D01*
X37079314Y-31589657D01*
X36513257Y-30675257D02*
X36426171Y-30675257D01*
X36339085Y-30718800D01*
X36295542Y-30762342D01*
X36252000Y-30849428D01*
X36208457Y-31023600D01*
X36208457Y-31241314D01*
X36252000Y-31415485D01*
X36295542Y-31502571D01*
X36339085Y-31546114D01*
X36426171Y-31589657D01*
X36513257Y-31589657D01*
X36600342Y-31546114D01*
X36643885Y-31502571D01*
X36687428Y-31415485D01*
X36730971Y-31241314D01*
X36730971Y-31023600D01*
X36687428Y-30849428D01*
X36643885Y-30762342D01*
X36600342Y-30718800D01*
X36513257Y-30675257D01*
X35860114Y-30762342D02*
X35816571Y-30718800D01*
X35729485Y-30675257D01*
X35511771Y-30675257D01*
X35424685Y-30718800D01*
X35381142Y-30762342D01*
X35337600Y-30849428D01*
X35337600Y-30936514D01*
X35381142Y-31067142D01*
X35903657Y-31589657D01*
X35337600Y-31589657D01*
X34771542Y-30675257D02*
X34684457Y-30675257D01*
X34597371Y-30718800D01*
X34553828Y-30762342D01*
X34510285Y-30849428D01*
X34466742Y-31023600D01*
X34466742Y-31241314D01*
X34510285Y-31415485D01*
X34553828Y-31502571D01*
X34597371Y-31546114D01*
X34684457Y-31589657D01*
X34771542Y-31589657D01*
X34858628Y-31546114D01*
X34902171Y-31502571D01*
X34945714Y-31415485D01*
X34989257Y-31241314D01*
X34989257Y-31023600D01*
X34945714Y-30849428D01*
X34902171Y-30762342D01*
X34858628Y-30718800D01*
X34771542Y-30675257D01*
X42043200Y-33113657D02*
X42043200Y-32199257D01*
X42043200Y-32547600D02*
X41956114Y-32504057D01*
X41781942Y-32504057D01*
X41694857Y-32547600D01*
X41651314Y-32591142D01*
X41607771Y-32678228D01*
X41607771Y-32939485D01*
X41651314Y-33026571D01*
X41694857Y-33070114D01*
X41781942Y-33113657D01*
X41956114Y-33113657D01*
X42043200Y-33070114D01*
X41215885Y-33113657D02*
X41215885Y-32504057D01*
X41215885Y-32678228D02*
X41172342Y-32591142D01*
X41128800Y-32547600D01*
X41041714Y-32504057D01*
X40954628Y-32504057D01*
X40301485Y-33070114D02*
X40388571Y-33113657D01*
X40562742Y-33113657D01*
X40649828Y-33070114D01*
X40693371Y-32983028D01*
X40693371Y-32634685D01*
X40649828Y-32547600D01*
X40562742Y-32504057D01*
X40388571Y-32504057D01*
X40301485Y-32547600D01*
X40257942Y-32634685D01*
X40257942Y-32721771D01*
X40693371Y-32808857D01*
X39474171Y-33113657D02*
X39474171Y-32634685D01*
X39517714Y-32547600D01*
X39604800Y-32504057D01*
X39778971Y-32504057D01*
X39866057Y-32547600D01*
X39474171Y-33070114D02*
X39561257Y-33113657D01*
X39778971Y-33113657D01*
X39866057Y-33070114D01*
X39909600Y-32983028D01*
X39909600Y-32895942D01*
X39866057Y-32808857D01*
X39778971Y-32765314D01*
X39561257Y-32765314D01*
X39474171Y-32721771D01*
X39038742Y-33113657D02*
X39038742Y-32199257D01*
X38951657Y-32765314D02*
X38690400Y-33113657D01*
X38690400Y-32504057D02*
X39038742Y-32852400D01*
X38167885Y-33113657D02*
X38254971Y-33070114D01*
X38298514Y-33026571D01*
X38342057Y-32939485D01*
X38342057Y-32678228D01*
X38298514Y-32591142D01*
X38254971Y-32547600D01*
X38167885Y-32504057D01*
X38037257Y-32504057D01*
X37950171Y-32547600D01*
X37906628Y-32591142D01*
X37863085Y-32678228D01*
X37863085Y-32939485D01*
X37906628Y-33026571D01*
X37950171Y-33070114D01*
X38037257Y-33113657D01*
X38167885Y-33113657D01*
X37079314Y-32504057D02*
X37079314Y-33113657D01*
X37471200Y-32504057D02*
X37471200Y-32983028D01*
X37427657Y-33070114D01*
X37340571Y-33113657D01*
X37209942Y-33113657D01*
X37122857Y-33070114D01*
X37079314Y-33026571D01*
X36774514Y-32504057D02*
X36426171Y-32504057D01*
X36643885Y-32199257D02*
X36643885Y-32983028D01*
X36600342Y-33070114D01*
X36513257Y-33113657D01*
X36426171Y-33113657D01*
X44024400Y-34028057D02*
X43676057Y-34028057D01*
X43893771Y-33723257D02*
X43893771Y-34507028D01*
X43850228Y-34594114D01*
X43763142Y-34637657D01*
X43676057Y-34637657D01*
X43371257Y-34637657D02*
X43371257Y-34028057D01*
X43371257Y-33723257D02*
X43414800Y-33766800D01*
X43371257Y-33810342D01*
X43327714Y-33766800D01*
X43371257Y-33723257D01*
X43371257Y-33810342D01*
X42935828Y-34028057D02*
X42935828Y-34637657D01*
X42935828Y-34115142D02*
X42892285Y-34071600D01*
X42805200Y-34028057D01*
X42674571Y-34028057D01*
X42587485Y-34071600D01*
X42543942Y-34158685D01*
X42543942Y-34637657D01*
X42195600Y-34028057D02*
X41977885Y-34637657D01*
X41760171Y-34028057D02*
X41977885Y-34637657D01*
X42064971Y-34855371D01*
X42108514Y-34898914D01*
X42195600Y-34942457D01*
X41019942Y-34594114D02*
X41107028Y-34637657D01*
X41281200Y-34637657D01*
X41368285Y-34594114D01*
X41411828Y-34550571D01*
X41455371Y-34463485D01*
X41455371Y-34202228D01*
X41411828Y-34115142D01*
X41368285Y-34071600D01*
X41281200Y-34028057D01*
X41107028Y-34028057D01*
X41019942Y-34071600D01*
X40497428Y-34637657D02*
X40584514Y-34594114D01*
X40628057Y-34507028D01*
X40628057Y-33723257D01*
X40018457Y-34637657D02*
X40105542Y-34594114D01*
X40149085Y-34550571D01*
X40192628Y-34463485D01*
X40192628Y-34202228D01*
X40149085Y-34115142D01*
X40105542Y-34071600D01*
X40018457Y-34028057D01*
X39887828Y-34028057D01*
X39800742Y-34071600D01*
X39757200Y-34115142D01*
X39713657Y-34202228D01*
X39713657Y-34463485D01*
X39757200Y-34550571D01*
X39800742Y-34594114D01*
X39887828Y-34637657D01*
X40018457Y-34637657D01*
X38929885Y-34028057D02*
X38929885Y-34637657D01*
X39321771Y-34028057D02*
X39321771Y-34507028D01*
X39278228Y-34594114D01*
X39191142Y-34637657D01*
X39060514Y-34637657D01*
X38973428Y-34594114D01*
X38929885Y-34550571D01*
X38102571Y-34637657D02*
X38102571Y-33723257D01*
X38102571Y-34594114D02*
X38189657Y-34637657D01*
X38363828Y-34637657D01*
X38450914Y-34594114D01*
X38494457Y-34550571D01*
X38538000Y-34463485D01*
X38538000Y-34202228D01*
X38494457Y-34115142D01*
X38450914Y-34071600D01*
X38363828Y-34028057D01*
X38189657Y-34028057D01*
X38102571Y-34071600D01*
X37710685Y-34594114D02*
X37623600Y-34637657D01*
X37449428Y-34637657D01*
X37362342Y-34594114D01*
X37318800Y-34507028D01*
X37318800Y-34463485D01*
X37362342Y-34376400D01*
X37449428Y-34332857D01*
X37580057Y-34332857D01*
X37667142Y-34289314D01*
X37710685Y-34202228D01*
X37710685Y-34158685D01*
X37667142Y-34071600D01*
X37580057Y-34028057D01*
X37449428Y-34028057D01*
X37362342Y-34071600D01*
X36926914Y-34550571D02*
X36883371Y-34594114D01*
X36926914Y-34637657D01*
X36970457Y-34594114D01*
X36926914Y-34550571D01*
X36926914Y-34637657D01*
X36360857Y-34637657D02*
X36447942Y-34594114D01*
X36491485Y-34550571D01*
X36535028Y-34463485D01*
X36535028Y-34202228D01*
X36491485Y-34115142D01*
X36447942Y-34071600D01*
X36360857Y-34028057D01*
X36230228Y-34028057D01*
X36143142Y-34071600D01*
X36099600Y-34115142D01*
X36056057Y-34202228D01*
X36056057Y-34463485D01*
X36099600Y-34550571D01*
X36143142Y-34594114D01*
X36230228Y-34637657D01*
X36360857Y-34637657D01*
X35664171Y-34637657D02*
X35664171Y-34028057D01*
X35664171Y-34202228D02*
X35620628Y-34115142D01*
X35577085Y-34071600D01*
X35490000Y-34028057D01*
X35402914Y-34028057D01*
X34706228Y-34028057D02*
X34706228Y-34768285D01*
X34749771Y-34855371D01*
X34793314Y-34898914D01*
X34880400Y-34942457D01*
X35011028Y-34942457D01*
X35098114Y-34898914D01*
X34706228Y-34594114D02*
X34793314Y-34637657D01*
X34967485Y-34637657D01*
X35054571Y-34594114D01*
X35098114Y-34550571D01*
X35141657Y-34463485D01*
X35141657Y-34202228D01*
X35098114Y-34115142D01*
X35054571Y-34071600D01*
X34967485Y-34028057D01*
X34793314Y-34028057D01*
X34706228Y-34071600D01*
D11*
X44390000Y-34985000D02*
X45720000Y-34985000D01*
X44390000Y-33655000D02*
X44390000Y-34985000D01*
X44390000Y-32385000D02*
X47050000Y-32385000D01*
X47050000Y-32385000D02*
X47050000Y-29785000D01*
X44390000Y-32385000D02*
X44390000Y-29785000D01*
X44390000Y-29785000D02*
X47050000Y-29785000D01*
X31690000Y-35050000D02*
X33020000Y-35050000D01*
X31690000Y-33720000D02*
X31690000Y-35050000D01*
X31690000Y-32450000D02*
X34350000Y-32450000D01*
X34350000Y-32450000D02*
X34350000Y-29850000D01*
X31690000Y-32450000D02*
X31690000Y-29850000D01*
X31690000Y-29850000D02*
X34350000Y-29850000D01*
M02*
