G04 #@! TF.GenerationSoftware,KiCad,Pcbnew,(5.1.4-0-10_14)*
G04 #@! TF.CreationDate,2019-11-14T21:06:26-05:00*
G04 #@! TF.ProjectId,ws2812-2020-breakout,77733238-3132-42d3-9230-32302d627265,rev?*
G04 #@! TF.SameCoordinates,Original*
G04 #@! TF.FileFunction,Soldermask,Bot*
G04 #@! TF.FilePolarity,Negative*
%FSLAX46Y46*%
G04 Gerber Fmt 4.6, Leading zero omitted, Abs format (unit mm)*
G04 Created by KiCad (PCBNEW (5.1.4-0-10_14)) date 2019-11-14 21:06:26*
%MOMM*%
%LPD*%
G04 APERTURE LIST*
%ADD10C,0.100000*%
G04 APERTURE END LIST*
D10*
G36*
X33133512Y-32823927D02*
G01*
X33282812Y-32853624D01*
X33446784Y-32921544D01*
X33594354Y-33020147D01*
X33719853Y-33145646D01*
X33818456Y-33293216D01*
X33886376Y-33457188D01*
X33921000Y-33631259D01*
X33921000Y-33808741D01*
X33886376Y-33982812D01*
X33818456Y-34146784D01*
X33719853Y-34294354D01*
X33594354Y-34419853D01*
X33446784Y-34518456D01*
X33282812Y-34586376D01*
X33133512Y-34616073D01*
X33108742Y-34621000D01*
X32931258Y-34621000D01*
X32906488Y-34616073D01*
X32757188Y-34586376D01*
X32593216Y-34518456D01*
X32445646Y-34419853D01*
X32320147Y-34294354D01*
X32221544Y-34146784D01*
X32153624Y-33982812D01*
X32119000Y-33808741D01*
X32119000Y-33631259D01*
X32153624Y-33457188D01*
X32221544Y-33293216D01*
X32320147Y-33145646D01*
X32445646Y-33020147D01*
X32593216Y-32921544D01*
X32757188Y-32853624D01*
X32906488Y-32823927D01*
X32931258Y-32819000D01*
X33108742Y-32819000D01*
X33133512Y-32823927D01*
X33133512Y-32823927D01*
G37*
G36*
X45833512Y-32758927D02*
G01*
X45982812Y-32788624D01*
X46146784Y-32856544D01*
X46294354Y-32955147D01*
X46419853Y-33080646D01*
X46518456Y-33228216D01*
X46586376Y-33392188D01*
X46621000Y-33566259D01*
X46621000Y-33743741D01*
X46586376Y-33917812D01*
X46518456Y-34081784D01*
X46419853Y-34229354D01*
X46294354Y-34354853D01*
X46146784Y-34453456D01*
X45982812Y-34521376D01*
X45833512Y-34551073D01*
X45808742Y-34556000D01*
X45631258Y-34556000D01*
X45606488Y-34551073D01*
X45457188Y-34521376D01*
X45293216Y-34453456D01*
X45145646Y-34354853D01*
X45020147Y-34229354D01*
X44921544Y-34081784D01*
X44853624Y-33917812D01*
X44819000Y-33743741D01*
X44819000Y-33566259D01*
X44853624Y-33392188D01*
X44921544Y-33228216D01*
X45020147Y-33080646D01*
X45145646Y-32955147D01*
X45293216Y-32856544D01*
X45457188Y-32788624D01*
X45606488Y-32758927D01*
X45631258Y-32754000D01*
X45808742Y-32754000D01*
X45833512Y-32758927D01*
X45833512Y-32758927D01*
G37*
G36*
X33130443Y-30285519D02*
G01*
X33196627Y-30292037D01*
X33366466Y-30343557D01*
X33366468Y-30343558D01*
X33444728Y-30385389D01*
X33522991Y-30427222D01*
X33558729Y-30456552D01*
X33660186Y-30539814D01*
X33743448Y-30641271D01*
X33772778Y-30677009D01*
X33856443Y-30833534D01*
X33907963Y-31003373D01*
X33925359Y-31180000D01*
X33907963Y-31356627D01*
X33856443Y-31526466D01*
X33772778Y-31682991D01*
X33743448Y-31718729D01*
X33660186Y-31820186D01*
X33558729Y-31903448D01*
X33522991Y-31932778D01*
X33366466Y-32016443D01*
X33196627Y-32067963D01*
X33130443Y-32074481D01*
X33064260Y-32081000D01*
X32975740Y-32081000D01*
X32909557Y-32074481D01*
X32843373Y-32067963D01*
X32673534Y-32016443D01*
X32517009Y-31932778D01*
X32481271Y-31903448D01*
X32379814Y-31820186D01*
X32296552Y-31718729D01*
X32267222Y-31682991D01*
X32183557Y-31526466D01*
X32132037Y-31356627D01*
X32114641Y-31180000D01*
X32132037Y-31003373D01*
X32183557Y-30833534D01*
X32267222Y-30677009D01*
X32296552Y-30641271D01*
X32379814Y-30539814D01*
X32481271Y-30456552D01*
X32517009Y-30427222D01*
X32595271Y-30385390D01*
X32673532Y-30343558D01*
X32673534Y-30343557D01*
X32843373Y-30292037D01*
X32909557Y-30285519D01*
X32975740Y-30279000D01*
X33064260Y-30279000D01*
X33130443Y-30285519D01*
X33130443Y-30285519D01*
G37*
G36*
X45830442Y-30220518D02*
G01*
X45896627Y-30227037D01*
X46066466Y-30278557D01*
X46222991Y-30362222D01*
X46258729Y-30391552D01*
X46360186Y-30474814D01*
X46443448Y-30576271D01*
X46472778Y-30612009D01*
X46556443Y-30768534D01*
X46607963Y-30938373D01*
X46625359Y-31115000D01*
X46607963Y-31291627D01*
X46556443Y-31461466D01*
X46472778Y-31617991D01*
X46443448Y-31653729D01*
X46360186Y-31755186D01*
X46280983Y-31820185D01*
X46222991Y-31867778D01*
X46222989Y-31867779D01*
X46101386Y-31932778D01*
X46066466Y-31951443D01*
X45896627Y-32002963D01*
X45830443Y-32009481D01*
X45764260Y-32016000D01*
X45675740Y-32016000D01*
X45609557Y-32009481D01*
X45543373Y-32002963D01*
X45373534Y-31951443D01*
X45338615Y-31932778D01*
X45217011Y-31867779D01*
X45217009Y-31867778D01*
X45159017Y-31820185D01*
X45079814Y-31755186D01*
X44996552Y-31653729D01*
X44967222Y-31617991D01*
X44883557Y-31461466D01*
X44832037Y-31291627D01*
X44814641Y-31115000D01*
X44832037Y-30938373D01*
X44883557Y-30768534D01*
X44967222Y-30612009D01*
X44996552Y-30576271D01*
X45079814Y-30474814D01*
X45181271Y-30391552D01*
X45217009Y-30362222D01*
X45373534Y-30278557D01*
X45543373Y-30227037D01*
X45609558Y-30220518D01*
X45675740Y-30214000D01*
X45764260Y-30214000D01*
X45830442Y-30220518D01*
X45830442Y-30220518D01*
G37*
M02*
