G04 #@! TF.GenerationSoftware,KiCad,Pcbnew,(5.1.4-0-10_14)*
G04 #@! TF.CreationDate,2019-11-14T18:35:22-05:00*
G04 #@! TF.ProjectId,ws2812-2020-breakout,77733238-3132-42d3-9230-32302d627265,rev?*
G04 #@! TF.SameCoordinates,Original*
G04 #@! TF.FileFunction,Copper,L2,Bot*
G04 #@! TF.FilePolarity,Positive*
%FSLAX46Y46*%
G04 Gerber Fmt 4.6, Leading zero omitted, Abs format (unit mm)*
G04 Created by KiCad (PCBNEW (5.1.4-0-10_14)) date 2019-11-14 18:35:22*
%MOMM*%
%LPD*%
G04 APERTURE LIST*
%ADD10O,1.700000X1.700000*%
%ADD11R,1.700000X1.700000*%
%ADD12C,0.254000*%
G04 APERTURE END LIST*
D10*
X45720000Y-31115000D03*
D11*
X45720000Y-33655000D03*
D10*
X33020000Y-31180000D03*
D11*
X33020000Y-33720000D03*
D12*
G36*
X44341401Y-30543966D02*
G01*
X44256487Y-30823889D01*
X44227815Y-31115000D01*
X44256487Y-31406111D01*
X44341401Y-31686034D01*
X44479294Y-31944014D01*
X44664866Y-32170134D01*
X44694687Y-32194607D01*
X44625820Y-32215498D01*
X44515506Y-32274463D01*
X44418815Y-32353815D01*
X44339463Y-32450506D01*
X44280498Y-32560820D01*
X44244188Y-32680518D01*
X44231928Y-32805000D01*
X44235000Y-33369250D01*
X44393750Y-33528000D01*
X45593000Y-33528000D01*
X45593000Y-33508000D01*
X45847000Y-33508000D01*
X45847000Y-33528000D01*
X45867000Y-33528000D01*
X45867000Y-33782000D01*
X45847000Y-33782000D01*
X45847000Y-33802000D01*
X45593000Y-33802000D01*
X45593000Y-33782000D01*
X44393750Y-33782000D01*
X44235000Y-33940750D01*
X44231928Y-34505000D01*
X44235375Y-34540000D01*
X34508072Y-34540000D01*
X34508072Y-32870000D01*
X34495812Y-32745518D01*
X34459502Y-32625820D01*
X34400537Y-32515506D01*
X34321185Y-32418815D01*
X34224494Y-32339463D01*
X34114180Y-32280498D01*
X34045313Y-32259607D01*
X34075134Y-32235134D01*
X34260706Y-32009014D01*
X34398599Y-31751034D01*
X34483513Y-31471111D01*
X34512185Y-31180000D01*
X34483513Y-30888889D01*
X34398599Y-30608966D01*
X34265524Y-30360000D01*
X44439733Y-30360000D01*
X44341401Y-30543966D01*
X44341401Y-30543966D01*
G37*
X44341401Y-30543966D02*
X44256487Y-30823889D01*
X44227815Y-31115000D01*
X44256487Y-31406111D01*
X44341401Y-31686034D01*
X44479294Y-31944014D01*
X44664866Y-32170134D01*
X44694687Y-32194607D01*
X44625820Y-32215498D01*
X44515506Y-32274463D01*
X44418815Y-32353815D01*
X44339463Y-32450506D01*
X44280498Y-32560820D01*
X44244188Y-32680518D01*
X44231928Y-32805000D01*
X44235000Y-33369250D01*
X44393750Y-33528000D01*
X45593000Y-33528000D01*
X45593000Y-33508000D01*
X45847000Y-33508000D01*
X45847000Y-33528000D01*
X45867000Y-33528000D01*
X45867000Y-33782000D01*
X45847000Y-33782000D01*
X45847000Y-33802000D01*
X45593000Y-33802000D01*
X45593000Y-33782000D01*
X44393750Y-33782000D01*
X44235000Y-33940750D01*
X44231928Y-34505000D01*
X44235375Y-34540000D01*
X34508072Y-34540000D01*
X34508072Y-32870000D01*
X34495812Y-32745518D01*
X34459502Y-32625820D01*
X34400537Y-32515506D01*
X34321185Y-32418815D01*
X34224494Y-32339463D01*
X34114180Y-32280498D01*
X34045313Y-32259607D01*
X34075134Y-32235134D01*
X34260706Y-32009014D01*
X34398599Y-31751034D01*
X34483513Y-31471111D01*
X34512185Y-31180000D01*
X34483513Y-30888889D01*
X34398599Y-30608966D01*
X34265524Y-30360000D01*
X44439733Y-30360000D01*
X44341401Y-30543966D01*
M02*
