%FSLAX45Y45*%
G04 Gerber Fmt 4.5, Leading zero omitted, Abs format (unit mm)*
G04 Created by KiCad (PCBNEW (5.1.4-0-10_14)) date 2019-11-14 21:06:11*
%MOMM*%
%LPD*%
G04 APERTURE LIST*
%ADD10C,0.050000*%
%ADD11C,0.200000*%
%ADD12C,0.300000*%
G04 APERTURE END LIST*
D10*
X4720000Y-2970000D02*
X4720000Y-3520000D01*
X3160000Y-2970000D02*
X3160000Y-3520000D01*
X3160000Y-3520000D02*
X4720000Y-3520000D01*
X3160000Y-2970000D02*
X4720000Y-2970000D01*
D11*
X3413000Y-3231000D02*
X3453000Y-3271000D01*
X3453000Y-3231000D02*
X3413000Y-3271000D01*
X3352000Y-3118000D02*
G75*
G03X3352000Y-3118000I-50000J0D01*
G01*
X3352000Y-3372000D02*
G75*
G03X3352000Y-3372000I-50000J0D01*
G01*
X4622000Y-3111500D02*
G75*
G03X4622000Y-3111500I-50000J0D01*
G01*
X4622000Y-3365500D02*
G75*
G03X4622000Y-3365500I-50000J0D01*
G01*
D12*
X3443928Y-3988214D02*
X3443928Y-3688214D01*
X3515357Y-3688214D01*
X3558214Y-3702500D01*
X3586786Y-3731071D01*
X3601071Y-3759643D01*
X3615357Y-3816786D01*
X3615357Y-3859643D01*
X3601071Y-3916786D01*
X3586786Y-3945357D01*
X3558214Y-3973929D01*
X3515357Y-3988214D01*
X3443928Y-3988214D01*
X3743928Y-3988214D02*
X3743928Y-3788214D01*
X3743928Y-3845357D02*
X3758214Y-3816786D01*
X3772500Y-3802500D01*
X3801071Y-3788214D01*
X3829643Y-3788214D01*
X3929643Y-3988214D02*
X3929643Y-3788214D01*
X3929643Y-3688214D02*
X3915357Y-3702500D01*
X3929643Y-3716786D01*
X3943928Y-3702500D01*
X3929643Y-3688214D01*
X3929643Y-3716786D01*
X4115357Y-3988214D02*
X4086786Y-3973929D01*
X4072500Y-3945357D01*
X4072500Y-3688214D01*
X4272500Y-3988214D02*
X4243928Y-3973929D01*
X4229643Y-3945357D01*
X4229643Y-3688214D01*
X4615357Y-3988214D02*
X4615357Y-3688214D01*
X4715357Y-3902500D01*
X4815357Y-3688214D01*
X4815357Y-3988214D01*
X5086786Y-3988214D02*
X5086786Y-3831071D01*
X5072500Y-3802500D01*
X5043928Y-3788214D01*
X4986786Y-3788214D01*
X4958214Y-3802500D01*
X5086786Y-3973929D02*
X5058214Y-3988214D01*
X4986786Y-3988214D01*
X4958214Y-3973929D01*
X4943928Y-3945357D01*
X4943928Y-3916786D01*
X4958214Y-3888214D01*
X4986786Y-3873929D01*
X5058214Y-3873929D01*
X5086786Y-3859643D01*
X5229643Y-3788214D02*
X5229643Y-4088214D01*
X5229643Y-3802500D02*
X5258214Y-3788214D01*
X5315357Y-3788214D01*
X5343928Y-3802500D01*
X5358214Y-3816786D01*
X5372500Y-3845357D01*
X5372500Y-3931071D01*
X5358214Y-3959643D01*
X5343928Y-3973929D01*
X5315357Y-3988214D01*
X5258214Y-3988214D01*
X5229643Y-3973929D01*
X5501071Y-3959643D02*
X5515357Y-3973929D01*
X5501071Y-3988214D01*
X5486786Y-3973929D01*
X5501071Y-3959643D01*
X5501071Y-3988214D01*
X5501071Y-3802500D02*
X5515357Y-3816786D01*
X5501071Y-3831071D01*
X5486786Y-3816786D01*
X5501071Y-3802500D01*
X5501071Y-3831071D01*
X3117500Y-4462500D02*
X3157500Y-4502500D01*
X3157500Y-4462500D02*
X3117500Y-4502500D01*
X3501071Y-4318214D02*
X3529643Y-4318214D01*
X3558214Y-4332500D01*
X3572500Y-4346786D01*
X3586786Y-4375357D01*
X3601071Y-4432500D01*
X3601071Y-4503929D01*
X3586786Y-4561072D01*
X3572500Y-4589643D01*
X3558214Y-4603929D01*
X3529643Y-4618214D01*
X3501071Y-4618214D01*
X3472500Y-4603929D01*
X3458214Y-4589643D01*
X3443928Y-4561072D01*
X3429643Y-4503929D01*
X3429643Y-4432500D01*
X3443928Y-4375357D01*
X3458214Y-4346786D01*
X3472500Y-4332500D01*
X3501071Y-4318214D01*
X3729643Y-4589643D02*
X3743928Y-4603929D01*
X3729643Y-4618214D01*
X3715357Y-4603929D01*
X3729643Y-4589643D01*
X3729643Y-4618214D01*
X4001071Y-4418214D02*
X4001071Y-4618214D01*
X3929643Y-4303929D02*
X3858214Y-4518214D01*
X4043928Y-4518214D01*
X4215357Y-4318214D02*
X4243928Y-4318214D01*
X4272500Y-4332500D01*
X4286786Y-4346786D01*
X4301071Y-4375357D01*
X4315357Y-4432500D01*
X4315357Y-4503929D01*
X4301071Y-4561072D01*
X4286786Y-4589643D01*
X4272500Y-4603929D01*
X4243928Y-4618214D01*
X4215357Y-4618214D01*
X4186786Y-4603929D01*
X4172500Y-4589643D01*
X4158214Y-4561072D01*
X4143928Y-4503929D01*
X4143928Y-4432500D01*
X4158214Y-4375357D01*
X4172500Y-4346786D01*
X4186786Y-4332500D01*
X4215357Y-4318214D01*
X4443928Y-4618214D02*
X4443928Y-4418214D01*
X4443928Y-4446786D02*
X4458214Y-4432500D01*
X4486786Y-4418214D01*
X4529643Y-4418214D01*
X4558214Y-4432500D01*
X4572500Y-4461072D01*
X4572500Y-4618214D01*
X4572500Y-4461072D02*
X4586786Y-4432500D01*
X4615357Y-4418214D01*
X4658214Y-4418214D01*
X4686786Y-4432500D01*
X4701071Y-4461072D01*
X4701071Y-4618214D01*
X4843928Y-4618214D02*
X4843928Y-4418214D01*
X4843928Y-4446786D02*
X4858214Y-4432500D01*
X4886786Y-4418214D01*
X4929643Y-4418214D01*
X4958214Y-4432500D01*
X4972500Y-4461072D01*
X4972500Y-4618214D01*
X4972500Y-4461072D02*
X4986786Y-4432500D01*
X5015357Y-4418214D01*
X5058214Y-4418214D01*
X5086786Y-4432500D01*
X5101071Y-4461072D01*
X5101071Y-4618214D01*
X5686786Y-4303929D02*
X5429643Y-4689643D01*
X6072500Y-4318214D02*
X6101071Y-4318214D01*
X6129643Y-4332500D01*
X6143928Y-4346786D01*
X6158214Y-4375357D01*
X6172500Y-4432500D01*
X6172500Y-4503929D01*
X6158214Y-4561072D01*
X6143928Y-4589643D01*
X6129643Y-4603929D01*
X6101071Y-4618214D01*
X6072500Y-4618214D01*
X6043928Y-4603929D01*
X6029643Y-4589643D01*
X6015357Y-4561072D01*
X6001071Y-4503929D01*
X6001071Y-4432500D01*
X6015357Y-4375357D01*
X6029643Y-4346786D01*
X6043928Y-4332500D01*
X6072500Y-4318214D01*
X6301071Y-4589643D02*
X6315357Y-4603929D01*
X6301071Y-4618214D01*
X6286786Y-4603929D01*
X6301071Y-4589643D01*
X6301071Y-4618214D01*
X6501071Y-4318214D02*
X6529643Y-4318214D01*
X6558214Y-4332500D01*
X6572500Y-4346786D01*
X6586786Y-4375357D01*
X6601071Y-4432500D01*
X6601071Y-4503929D01*
X6586786Y-4561072D01*
X6572500Y-4589643D01*
X6558214Y-4603929D01*
X6529643Y-4618214D01*
X6501071Y-4618214D01*
X6472500Y-4603929D01*
X6458214Y-4589643D01*
X6443928Y-4561072D01*
X6429643Y-4503929D01*
X6429643Y-4432500D01*
X6443928Y-4375357D01*
X6458214Y-4346786D01*
X6472500Y-4332500D01*
X6501071Y-4318214D01*
X6886786Y-4618214D02*
X6715357Y-4618214D01*
X6801071Y-4618214D02*
X6801071Y-4318214D01*
X6772500Y-4361072D01*
X6743928Y-4389643D01*
X6715357Y-4403929D01*
X7143928Y-4318214D02*
X7086786Y-4318214D01*
X7058214Y-4332500D01*
X7043928Y-4346786D01*
X7015357Y-4389643D01*
X7001071Y-4446786D01*
X7001071Y-4561072D01*
X7015357Y-4589643D01*
X7029643Y-4603929D01*
X7058214Y-4618214D01*
X7115357Y-4618214D01*
X7143928Y-4603929D01*
X7158214Y-4589643D01*
X7172500Y-4561072D01*
X7172500Y-4489643D01*
X7158214Y-4461072D01*
X7143928Y-4446786D01*
X7115357Y-4432500D01*
X7058214Y-4432500D01*
X7029643Y-4446786D01*
X7015357Y-4461072D01*
X7001071Y-4489643D01*
X7286786Y-4318214D02*
X7286786Y-4375357D01*
X7401071Y-4318214D02*
X7401071Y-4375357D01*
X7843928Y-4732500D02*
X7829643Y-4718214D01*
X7801071Y-4675357D01*
X7786786Y-4646786D01*
X7772500Y-4603929D01*
X7758214Y-4532500D01*
X7758214Y-4475357D01*
X7772500Y-4403929D01*
X7786786Y-4361072D01*
X7801071Y-4332500D01*
X7829643Y-4289643D01*
X7843928Y-4275357D01*
X8115357Y-4618214D02*
X7943928Y-4618214D01*
X8029643Y-4618214D02*
X8029643Y-4318214D01*
X8001071Y-4361072D01*
X7972500Y-4389643D01*
X7943928Y-4403929D01*
X8472500Y-4618214D02*
X8472500Y-4318214D01*
X8601071Y-4618214D02*
X8601071Y-4461072D01*
X8586786Y-4432500D01*
X8558214Y-4418214D01*
X8515357Y-4418214D01*
X8486786Y-4432500D01*
X8472500Y-4446786D01*
X8786786Y-4618214D02*
X8758214Y-4603929D01*
X8743928Y-4589643D01*
X8729643Y-4561072D01*
X8729643Y-4475357D01*
X8743928Y-4446786D01*
X8758214Y-4432500D01*
X8786786Y-4418214D01*
X8829643Y-4418214D01*
X8858214Y-4432500D01*
X8872500Y-4446786D01*
X8886786Y-4475357D01*
X8886786Y-4561072D01*
X8872500Y-4589643D01*
X8858214Y-4603929D01*
X8829643Y-4618214D01*
X8786786Y-4618214D01*
X9058214Y-4618214D02*
X9029643Y-4603929D01*
X9015357Y-4575357D01*
X9015357Y-4318214D01*
X9286786Y-4603929D02*
X9258214Y-4618214D01*
X9201071Y-4618214D01*
X9172500Y-4603929D01*
X9158214Y-4575357D01*
X9158214Y-4461072D01*
X9172500Y-4432500D01*
X9201071Y-4418214D01*
X9258214Y-4418214D01*
X9286786Y-4432500D01*
X9301071Y-4461072D01*
X9301071Y-4489643D01*
X9158214Y-4518214D01*
X9401071Y-4732500D02*
X9415357Y-4718214D01*
X9443928Y-4675357D01*
X9458214Y-4646786D01*
X9472500Y-4603929D01*
X9486786Y-4532500D01*
X9486786Y-4475357D01*
X9472500Y-4403929D01*
X9458214Y-4361072D01*
X9443928Y-4332500D01*
X9415357Y-4289643D01*
X9401071Y-4275357D01*
X3157500Y-4878500D02*
G75*
G03X3157500Y-4878500I-50000J0D01*
G01*
X3601071Y-5014214D02*
X3429643Y-5014214D01*
X3515357Y-5014214D02*
X3515357Y-4714214D01*
X3486786Y-4757072D01*
X3458214Y-4785643D01*
X3429643Y-4799929D01*
X3729643Y-4985643D02*
X3743928Y-4999929D01*
X3729643Y-5014214D01*
X3715357Y-4999929D01*
X3729643Y-4985643D01*
X3729643Y-5014214D01*
X3929643Y-4714214D02*
X3958214Y-4714214D01*
X3986786Y-4728500D01*
X4001071Y-4742786D01*
X4015357Y-4771357D01*
X4029643Y-4828500D01*
X4029643Y-4899929D01*
X4015357Y-4957072D01*
X4001071Y-4985643D01*
X3986786Y-4999929D01*
X3958214Y-5014214D01*
X3929643Y-5014214D01*
X3901071Y-4999929D01*
X3886786Y-4985643D01*
X3872500Y-4957072D01*
X3858214Y-4899929D01*
X3858214Y-4828500D01*
X3872500Y-4771357D01*
X3886786Y-4742786D01*
X3901071Y-4728500D01*
X3929643Y-4714214D01*
X4215357Y-4714214D02*
X4243928Y-4714214D01*
X4272500Y-4728500D01*
X4286786Y-4742786D01*
X4301071Y-4771357D01*
X4315357Y-4828500D01*
X4315357Y-4899929D01*
X4301071Y-4957072D01*
X4286786Y-4985643D01*
X4272500Y-4999929D01*
X4243928Y-5014214D01*
X4215357Y-5014214D01*
X4186786Y-4999929D01*
X4172500Y-4985643D01*
X4158214Y-4957072D01*
X4143928Y-4899929D01*
X4143928Y-4828500D01*
X4158214Y-4771357D01*
X4172500Y-4742786D01*
X4186786Y-4728500D01*
X4215357Y-4714214D01*
X4443928Y-5014214D02*
X4443928Y-4814214D01*
X4443928Y-4842786D02*
X4458214Y-4828500D01*
X4486786Y-4814214D01*
X4529643Y-4814214D01*
X4558214Y-4828500D01*
X4572500Y-4857072D01*
X4572500Y-5014214D01*
X4572500Y-4857072D02*
X4586786Y-4828500D01*
X4615357Y-4814214D01*
X4658214Y-4814214D01*
X4686786Y-4828500D01*
X4701071Y-4857072D01*
X4701071Y-5014214D01*
X4843928Y-5014214D02*
X4843928Y-4814214D01*
X4843928Y-4842786D02*
X4858214Y-4828500D01*
X4886786Y-4814214D01*
X4929643Y-4814214D01*
X4958214Y-4828500D01*
X4972500Y-4857072D01*
X4972500Y-5014214D01*
X4972500Y-4857072D02*
X4986786Y-4828500D01*
X5015357Y-4814214D01*
X5058214Y-4814214D01*
X5086786Y-4828500D01*
X5101071Y-4857072D01*
X5101071Y-5014214D01*
X5686786Y-4699929D02*
X5429643Y-5085643D01*
X6072500Y-4714214D02*
X6101071Y-4714214D01*
X6129643Y-4728500D01*
X6143928Y-4742786D01*
X6158214Y-4771357D01*
X6172500Y-4828500D01*
X6172500Y-4899929D01*
X6158214Y-4957072D01*
X6143928Y-4985643D01*
X6129643Y-4999929D01*
X6101071Y-5014214D01*
X6072500Y-5014214D01*
X6043928Y-4999929D01*
X6029643Y-4985643D01*
X6015357Y-4957072D01*
X6001071Y-4899929D01*
X6001071Y-4828500D01*
X6015357Y-4771357D01*
X6029643Y-4742786D01*
X6043928Y-4728500D01*
X6072500Y-4714214D01*
X6301071Y-4985643D02*
X6315357Y-4999929D01*
X6301071Y-5014214D01*
X6286786Y-4999929D01*
X6301071Y-4985643D01*
X6301071Y-5014214D01*
X6501071Y-4714214D02*
X6529643Y-4714214D01*
X6558214Y-4728500D01*
X6572500Y-4742786D01*
X6586786Y-4771357D01*
X6601071Y-4828500D01*
X6601071Y-4899929D01*
X6586786Y-4957072D01*
X6572500Y-4985643D01*
X6558214Y-4999929D01*
X6529643Y-5014214D01*
X6501071Y-5014214D01*
X6472500Y-4999929D01*
X6458214Y-4985643D01*
X6443928Y-4957072D01*
X6429643Y-4899929D01*
X6429643Y-4828500D01*
X6443928Y-4771357D01*
X6458214Y-4742786D01*
X6472500Y-4728500D01*
X6501071Y-4714214D01*
X6701071Y-4714214D02*
X6886786Y-4714214D01*
X6786786Y-4828500D01*
X6829643Y-4828500D01*
X6858214Y-4842786D01*
X6872500Y-4857072D01*
X6886786Y-4885643D01*
X6886786Y-4957072D01*
X6872500Y-4985643D01*
X6858214Y-4999929D01*
X6829643Y-5014214D01*
X6743928Y-5014214D01*
X6715357Y-4999929D01*
X6701071Y-4985643D01*
X7029643Y-5014214D02*
X7086786Y-5014214D01*
X7115357Y-4999929D01*
X7129643Y-4985643D01*
X7158214Y-4942786D01*
X7172500Y-4885643D01*
X7172500Y-4771357D01*
X7158214Y-4742786D01*
X7143928Y-4728500D01*
X7115357Y-4714214D01*
X7058214Y-4714214D01*
X7029643Y-4728500D01*
X7015357Y-4742786D01*
X7001071Y-4771357D01*
X7001071Y-4842786D01*
X7015357Y-4871357D01*
X7029643Y-4885643D01*
X7058214Y-4899929D01*
X7115357Y-4899929D01*
X7143928Y-4885643D01*
X7158214Y-4871357D01*
X7172500Y-4842786D01*
X7286786Y-4714214D02*
X7286786Y-4771357D01*
X7401071Y-4714214D02*
X7401071Y-4771357D01*
X7843928Y-5128500D02*
X7829643Y-5114214D01*
X7801071Y-5071357D01*
X7786786Y-5042786D01*
X7772500Y-4999929D01*
X7758214Y-4928500D01*
X7758214Y-4871357D01*
X7772500Y-4799929D01*
X7786786Y-4757072D01*
X7801071Y-4728500D01*
X7829643Y-4685643D01*
X7843928Y-4671357D01*
X8086786Y-4814214D02*
X8086786Y-5014214D01*
X8015357Y-4699929D02*
X7943928Y-4914214D01*
X8129643Y-4914214D01*
X8472500Y-5014214D02*
X8472500Y-4714214D01*
X8601071Y-5014214D02*
X8601071Y-4857072D01*
X8586786Y-4828500D01*
X8558214Y-4814214D01*
X8515357Y-4814214D01*
X8486786Y-4828500D01*
X8472500Y-4842786D01*
X8786786Y-5014214D02*
X8758214Y-4999929D01*
X8743928Y-4985643D01*
X8729643Y-4957072D01*
X8729643Y-4871357D01*
X8743928Y-4842786D01*
X8758214Y-4828500D01*
X8786786Y-4814214D01*
X8829643Y-4814214D01*
X8858214Y-4828500D01*
X8872500Y-4842786D01*
X8886786Y-4871357D01*
X8886786Y-4957072D01*
X8872500Y-4985643D01*
X8858214Y-4999929D01*
X8829643Y-5014214D01*
X8786786Y-5014214D01*
X9058214Y-5014214D02*
X9029643Y-4999929D01*
X9015357Y-4971357D01*
X9015357Y-4714214D01*
X9286786Y-4999929D02*
X9258214Y-5014214D01*
X9201071Y-5014214D01*
X9172500Y-4999929D01*
X9158214Y-4971357D01*
X9158214Y-4857072D01*
X9172500Y-4828500D01*
X9201071Y-4814214D01*
X9258214Y-4814214D01*
X9286786Y-4828500D01*
X9301071Y-4857072D01*
X9301071Y-4885643D01*
X9158214Y-4914214D01*
X9415357Y-4999929D02*
X9443928Y-5014214D01*
X9501071Y-5014214D01*
X9529643Y-4999929D01*
X9543928Y-4971357D01*
X9543928Y-4957072D01*
X9529643Y-4928500D01*
X9501071Y-4914214D01*
X9458214Y-4914214D01*
X9429643Y-4899929D01*
X9415357Y-4871357D01*
X9415357Y-4857072D01*
X9429643Y-4828500D01*
X9458214Y-4814214D01*
X9501071Y-4814214D01*
X9529643Y-4828500D01*
X9643928Y-5128500D02*
X9658214Y-5114214D01*
X9686786Y-5071357D01*
X9701071Y-5042786D01*
X9715357Y-4999929D01*
X9729643Y-4928500D01*
X9729643Y-4871357D01*
X9715357Y-4799929D01*
X9701071Y-4757072D01*
X9686786Y-4728500D01*
X9658214Y-4685643D01*
X9643928Y-4671357D01*
M02*
